<svg width="32" height="18" viewBox="0 0 32 18" fill="none" xmlns="http://www.w3.org/2000/svg">
<path d="M0.032 8.624C0.032 6.992 0.4 5.528 1.136 4.232C1.872 2.92 2.872 1.896 4.136 1.16C5.416 0.423999 6.832 0.0559993 8.384 0.0559993C10.208 0.0559993 11.8 0.495999 13.16 1.376C14.52 2.256 15.512 3.504 16.136 5.12H13.52C13.056 4.112 12.384 3.336 11.504 2.792C10.64 2.248 9.6 1.976 8.384 1.976C7.216 1.976 6.168 2.248 5.24 2.792C4.312 3.336 3.584 4.112 3.056 5.12C2.528 6.112 2.264 7.28 2.264 8.624C2.264 9.952 2.528 11.12 3.056 12.128C3.584 13.12 4.312 13.888 5.24 14.432C6.168 14.976 7.216 15.248 8.384 15.248C9.6 15.248 10.64 14.984 11.504 14.456C12.384 13.912 13.056 13.136 13.52 12.128H16.136C15.512 13.728 14.52 14.968 13.16 15.848C11.8 16.712 10.208 17.144 8.384 17.144C6.832 17.144 5.416 16.784 4.136 16.064C2.872 15.328 1.872 14.312 1.136 13.016C0.4 11.72 0.032 10.256 0.032 8.624ZM31.8671 5.576C31.8671 6.552 31.6431 7.448 31.1951 8.264C30.7471 9.064 30.0591 9.712 29.1311 10.208C28.2031 10.704 27.0511 10.952 25.6751 10.952H23.1311V17H19.0271V0.151999H25.6751C27.0191 0.151999 28.1551 0.383999 29.0831 0.847999C30.0111 1.312 30.7071 1.952 31.1711 2.768C31.6351 3.584 31.8671 4.52 31.8671 5.576ZM25.3631 7.688C26.1471 7.688 26.7311 7.504 27.1151 7.136C27.4991 6.768 27.6911 6.248 27.6911 5.576C27.6911 4.904 27.4991 4.384 27.1151 4.016C26.7311 3.648 26.1471 3.464 25.3631 3.464H23.1311V7.688H25.3631Z" fill="white"/>
</svg>
