<svg width="32" height="19" viewBox="0 0 32 19" fill="none" xmlns="http://www.w3.org/2000/svg">
<path d="M0.792 9.552C0.792 7.888 1.152 6.408 1.872 5.112C2.592 3.8 3.592 2.784 4.872 2.064C6.168 1.328 7.632 0.959999 9.264 0.959999C11.264 0.959999 12.976 1.488 14.4 2.544C15.824 3.6 16.776 5.04 17.256 6.864H12.744C12.408 6.16 11.928 5.624 11.304 5.256C10.696 4.888 10 4.704 9.216 4.704C7.952 4.704 6.928 5.144 6.144 6.024C5.36 6.904 4.968 8.08 4.968 9.552C4.968 11.024 5.36 12.2 6.144 13.08C6.928 13.96 7.952 14.4 9.216 14.4C10 14.4 10.696 14.216 11.304 13.848C11.928 13.48 12.408 12.944 12.744 12.24H17.256C16.776 14.064 15.824 15.504 14.4 16.56C12.976 17.6 11.264 18.12 9.264 18.12C7.632 18.12 6.168 17.76 4.872 17.04C3.592 16.304 2.592 15.288 1.872 13.992C1.152 12.696 0.792 11.216 0.792 9.552ZM31.3133 6.168C31.3133 7.56 30.8333 8.72 29.8733 9.648C28.9293 10.56 27.4813 11.016 25.5293 11.016H22.3133V18H20.1293V1.272H25.5293C27.4173 1.272 28.8493 1.728 29.8253 2.64C30.8173 3.552 31.3133 4.728 31.3133 6.168ZM25.5293 9.216C26.7453 9.216 27.6413 8.952 28.2173 8.424C28.7933 7.896 29.0813 7.144 29.0813 6.168C29.0813 4.104 27.8973 3.072 25.5293 3.072H22.3133V9.216H25.5293Z" fill="white"/>
</svg>
